<svg width="151" height="120" viewBox="0 0 151 120" fill="none" xmlns="http://www.w3.org/2000/svg">
<path fill-rule="evenodd" clip-rule="evenodd" d="M94.5538 1.29768C94.5988 0.847476 94.5757 0.39056 94.5025 0.282183C94.1874 -0.184229 91.6222 -0.0612825 88.5295 0.568349C82.9216 1.71024 77.8522 4.32421 73.0184 8.56612C72.528 8.99668 72.3626 9.05201 71.8252 8.96606C71.393 8.89698 70.9963 8.9587 70.5341 9.1671C69.9356 9.43706 69.8479 9.44197 69.681 9.21425C69.4052 8.83755 68.5112 8.41878 67.9891 8.42156C67.3313 8.425 66.7773 8.75111 66.3487 9.38696C65.8198 10.172 65.859 10.9794 66.4664 11.8053C66.9431 12.4536 66.9502 12.4898 66.712 13.0601C66.3937 13.8216 66.4014 14.3975 66.7374 14.9661C67.0053 15.4199 67.0016 15.4312 66.3405 16.1372C64.0206 18.6156 61.6058 22.7962 60.4062 26.4111C59.5062 29.1232 59.2504 30.4641 59.1484 33.0031C59.0367 35.7813 59.1682 37.006 59.6025 37.2386C60.2249 37.5716 60.5046 37.1913 60.8965 35.4781C61.6415 32.2214 62.826 29.0097 64.3552 26.0999C65.4219 24.0697 67.6823 20.7251 68.8764 19.4095L69.8226 18.3674L70.5153 18.7287C71.0354 19.0001 71.3617 19.0646 71.825 18.9878L72.442 18.8853L86.4393 32.888C94.1378 40.5896 100.669 47.0014 100.952 47.1366C102.168 47.7156 103.673 47.3195 104.5 46.2021C104.946 45.6003 105.06 44.1628 104.715 43.495C104.572 43.2183 98.1358 36.6809 90.4129 28.9671C82.6898 21.2534 76.3961 14.8559 76.4266 14.7503C76.457 14.6447 76.4798 14.214 76.477 13.7931C76.4721 13.0592 76.5065 13.0024 77.3219 12.3984C79.2702 10.9551 80.7865 10.1471 83.1572 9.28808C86.049 8.2405 89.5315 7.60988 92.4598 7.60383C93.8829 7.60071 93.9867 7.57747 94.1163 7.2322C94.1923 7.02953 94.3035 5.79564 94.3632 4.49005C94.423 3.18445 94.5088 1.74789 94.5538 1.29768ZM77.8581 6.49337C81.3315 4.16066 86.1449 2.305 90.4502 1.63919C91.2606 1.51378 92.2017 1.40409 92.5416 1.39542L93.1598 1.37954L93.0602 3.63056C93.0054 4.86871 92.9322 5.97376 92.8975 6.08623C92.8536 6.228 92.4182 6.29185 91.4785 6.29381C86.6254 6.30462 81.2325 8.04732 76.982 10.9786L75.4649 12.0248L74.4494 11.0524L73.4339 10.08L73.7564 9.7229C74.1973 9.23504 76.6419 7.31046 77.8581 6.49337ZM67.5846 11.095C67.1869 10.7351 67.2057 10.2941 67.6314 9.99597C68.021 9.72306 68.5603 9.84634 68.8271 10.2694C68.9532 10.4694 68.8992 10.6328 68.6017 10.9493C68.1425 11.4381 67.9881 11.4602 67.5846 11.095ZM67.7763 13.9763C67.7763 13.8551 68.5719 12.9604 69.5443 11.988C70.5168 11.0156 71.408 10.2199 71.5249 10.2199C71.8833 10.2199 75.1392 13.5419 75.1413 13.9098C75.1441 14.3941 71.9697 17.587 71.4853 17.587C71.2289 17.587 70.5918 17.0577 69.4445 15.8917C68.5269 14.9594 67.7763 14.0974 67.7763 13.9763ZM73.429 17.9208L74.3216 17.0172C74.8124 16.5202 75.3096 16.1135 75.4263 16.1135C75.7655 16.1135 103.311 43.7599 103.494 44.2834C103.818 45.213 102.842 46.2344 101.857 45.996C101.566 45.9258 96.7013 41.176 87.424 31.9054L73.429 17.9208ZM61.3316 27.9222C62.4249 24.1485 64.3365 20.5824 66.8937 17.546C67.4056 16.9382 67.8648 16.441 67.9141 16.441C67.9635 16.441 68.2073 16.636 68.456 16.8742L68.908 17.3072L68.047 18.3066C65.9106 20.786 64.2861 23.2062 62.9255 25.9362C61.901 27.9923 60.9004 30.2999 60.9004 30.6069C60.9004 30.7285 60.8372 30.8673 60.7599 30.915C60.5686 31.0333 60.8361 29.633 61.3316 27.9222ZM50.1808 28.9942C51.1786 27.9963 51.0696 26.5748 49.9318 25.7468C48.9178 25.0088 47.5856 25.3432 46.978 26.4887C46.494 27.4011 46.6314 28.2347 47.3908 28.9942C47.8672 29.4706 48.0399 29.5378 48.7858 29.5378C49.5317 29.5378 49.7044 29.4706 50.1808 28.9942ZM48.4563 28.145C48.1593 27.9615 47.9935 27.3517 48.156 27.0413C48.3703 26.6325 49.2165 26.6634 49.4439 27.0884C49.5422 27.2719 49.5767 27.5664 49.5207 27.7428C49.4115 28.0865 48.7601 28.3328 48.4563 28.145ZM78.9038 29.7016C78.9038 28.9342 78.6088 28.3969 77.9407 27.9466C76.8671 27.2231 75.4702 27.6178 74.9077 28.8034C74.0012 30.7136 76.1953 32.6328 77.9407 31.4565C78.6088 31.0062 78.9038 30.4689 78.9038 29.7016ZM76.1255 29.6906C76.1255 29.3314 76.2242 29.1631 76.4939 29.0629C76.945 28.8953 77.2306 28.9917 77.4398 29.3826C77.6803 29.832 77.6366 29.9967 77.2006 30.2824C76.6441 30.647 76.1255 30.3615 76.1255 29.6906ZM57.2988 33.6028C57.2988 32.7626 54.9891 30.0332 53.7384 29.3953C52.8915 28.9631 52.4488 28.9534 52.2301 29.3623C51.9911 29.8088 52.1511 30.0974 52.8124 30.4127C53.6518 30.813 54.9394 32.0804 55.6093 33.1657C55.9306 33.6866 56.3353 34.1576 56.5085 34.2126C56.8965 34.3357 57.2988 34.0253 57.2988 33.6028ZM73.8336 30.0434C73.8336 29.7654 73.7276 29.5323 73.5746 29.4735C73.1289 29.3024 72.1557 29.3826 71.0477 29.6819C68.8096 30.2863 66.8446 31.4562 64.8704 33.36C63.5623 34.6214 63.3733 35.1333 64.0942 35.4619C64.4775 35.6366 64.59 35.567 65.7723 34.4241C67.8614 32.4046 69.6688 31.3698 71.8844 30.9241C71.9871 30.9035 72.0841 30.884 72.1763 30.8655C73.3919 30.6219 73.7186 30.5565 73.8046 30.3762C73.8362 30.3099 73.8354 30.2282 73.834 30.1164C73.8339 30.0933 73.8336 30.0691 73.8336 30.0434ZM78.6388 38.7834C78.3957 38.1498 75.0668 37.1874 72.1838 36.9174C71.1553 36.821 70.0559 36.7532 69.7408 36.7667C68.5591 36.8169 67.1962 36.9924 66.9986 37.1198C66.7562 37.276 66.7249 37.9888 66.9544 38.1307C67.0427 38.1852 68.4976 38.2512 70.1877 38.2772C73.3901 38.3267 74.6868 38.5167 76.57 39.2123C78.0151 39.746 78.3585 39.7765 78.5659 39.3888C78.6637 39.2061 78.6964 38.9337 78.6388 38.7834ZM64.2011 40.752L60.7909 39.2403C58.9152 38.4088 57.2948 37.7275 57.1901 37.726C57.0283 37.7237 56.3848 38.4318 53.9199 41.3235C53.7274 41.5495 53.2777 42.0765 52.9205 42.4946C52.5633 42.9127 51.5054 43.937 50.5694 44.7708C49.6335 45.6047 48.288 46.8097 47.5793 47.4486C46.8707 48.0874 46.226 48.6347 46.1468 48.6647C46.0676 48.6948 46.0027 50.6628 46.0027 53.0382C46.0027 57.1896 46.0155 57.3639 46.3302 57.5324C46.5628 57.6568 46.7524 57.6568 46.985 57.5324C47.2983 57.3647 47.3124 57.1896 47.3124 53.4598V49.5625L48.3356 48.5952C48.8984 48.0632 50.2564 46.8375 51.3536 45.8714C52.5777 44.7937 54.1244 43.1926 55.3562 41.7281C57.0827 39.6755 57.416 39.3544 57.7365 39.4348C57.9417 39.4864 59.186 40.0063 60.5021 40.5905C61.8182 41.1746 62.9438 41.6524 63.0038 41.6524C63.0637 41.6524 63.7987 42.9772 64.6371 44.5961L66.1614 47.54L66.9279 47.7636C67.3495 47.8867 69.335 48.3824 71.3399 48.865L74.9854 49.7429L75.5105 50.8955C75.7992 51.5294 76.4983 52.9922 77.0639 54.1462C78.0378 56.1328 78.1162 56.2415 78.5414 56.1926C79.2304 56.1132 79.1971 55.513 78.4101 53.8296C76.2702 49.2527 75.9723 48.69 75.6038 48.5298C75.3955 48.4394 73.4307 47.9299 71.2373 47.3975C69.044 46.8653 67.1912 46.368 67.1198 46.2922C67.0484 46.2165 66.3624 44.9389 65.5956 43.4533L64.2011 40.752ZM83.983 40.7273C83.9821 40.0502 83.4075 39.213 82.7574 38.9414C81.5568 38.4398 80.4841 38.8748 79.9876 40.0646C79.6885 40.7813 79.687 40.8453 79.955 41.5472C80.2739 42.3819 80.8047 42.7984 81.7035 42.9189C82.8439 43.072 83.9846 41.9751 83.983 40.7273ZM81.2005 40.8363C81.2005 40.5544 81.3179 40.2907 81.487 40.1921L81.524 40.1705C81.6797 40.0797 81.7567 40.0347 81.8343 40.0337C81.9102 40.0327 81.9865 40.0736 82.1378 40.1548L82.1743 40.1745C82.7802 40.4988 82.7486 41.2451 82.1191 41.4832C81.6069 41.6768 81.2005 41.3907 81.2005 40.8363ZM118.527 84.5447V76.0317V67.5187H115.171H111.814V75.2865V83.0541H110.952H110.014V84.1473C110.014 84.1473 110.529 84.1354 110.866 84.1354H111.733L111.775 93.0907L111.817 102.046L114.394 102.095C115.812 102.122 117.137 102.12 117.34 102.091L117.708 102.039V93.2917V84.5447H118.117H118.527ZM111.814 83.0541H113.615H115.171V83.6443V84.1354C115.171 84.1354 114.107 84.145 113.452 84.1473C112.796 84.1496 111.814 84.1473 111.814 84.1473V83.7446V83.0541ZM150.941 73.2486V70.3837V67.5187H140.791H130.641V70.3837V73.2486H133.997H137.353V87.6552V102.062H140.546C143.263 102.062 143.738 102.074 143.738 102.074V101.501H142.428V100.977V100.6C142.428 100.6 142.94 100.588 143.329 100.588H144.229V99.2786V97.9689H145.683H147.213V97.1504H145.675H144.229V85.1995V73.2486H147.585H150.941ZM59.0145 73.8352C58.1399 70.4781 56.3815 68.6482 53.3409 67.9313C52.0527 67.6276 48.3196 67.6256 46.8213 67.9279C44.5459 68.3867 43.1294 69.1609 41.9761 70.5757C40.0106 72.9867 39.6951 77.6919 41.2808 80.943C41.633 81.6647 42.2064 82.4154 43.063 83.2759C43.7576 83.9738 44.3165 84.5486 44.3049 84.5535C44.2933 84.5584 42.8922 84.5535 42.8922 84.5535H41.2551V85.3413C41.2551 85.3413 41.8509 85.3645 44.648 85.3413L47.8854 85.3144L47.9327 86.7304L47.98 88.1463H50.6749H53.3697V92.4846V96.823H49.7681H46.1664V93.958V91.0931H42.6467H39.1269V91.5024V91.9117H37.9809H36.8349V92.4846V93.0576H37.9755H39.1161L39.1624 94.8994L39.2087 96.7411L40.9686 96.712L42.7285 96.6827V99.3723V102.062H50.4188H58.1091L58.1542 99.4134L58.1992 96.765L59.0996 96.7531L60 96.7411L60.0432 91.5433L60.0864 86.3455H59.593C59.3733 86.3455 59.0996 86.3574 59.0996 86.3574V85.8543V85.3752C59.1017 85.3763 59.1646 85.3853 60.573 85.3752C60.8503 85.3732 61.5553 85.3752 61.5553 85.3752V84.5566C61.5553 84.5566 61.11 84.5447 60.3274 84.5447C59.4285 84.5447 59.0996 84.5566 59.0996 84.5566V84.9539V85.3752L55.0887 85.3632H51.0778V84.9577V84.552L54.0655 84.5075L57.0532 84.4628L56.0384 83.7667C55.4803 83.3838 54.3752 82.7686 53.5827 82.3996C49.1491 80.3353 48.1529 79.793 47.5914 79.137C46.8804 78.3061 46.5868 77.2923 46.6992 76.0543C46.8755 74.1097 47.6641 73.4154 49.8175 73.3082C52.3413 73.1826 53.4889 73.9868 53.8939 76.1643L54.0859 77.1968L54.9965 77.1125C56.7061 76.954 59.1811 76.792 59.3276 76.829C59.52 76.8774 59.3275 75.037 59.0145 73.8352ZM39.1269 91.9117H40.2008H41.2551V92.4966V93.0696C41.2551 93.0696 40.3956 93.0956 39.9454 93.0822L39.1269 93.0576V92.4846V91.9117ZM2.20044 87.3277H4.50205V86.3455H2.19913H0V86.8366V87.3277H2.20044ZM35.1978 102.062V99.3605V96.6593H32.7422H30.2865V99.3605V102.062H32.7422H35.1978ZM70.3956 102.062V99.3605V96.6593H68.0218H65.648V99.3605V102.062H68.0218H70.3956ZM106.412 102.062V99.3605V96.6593H104.048C102.748 96.6593 101.66 96.7144 101.631 96.782C101.602 96.8497 101.603 98.065 101.633 99.4833L101.687 102.062H104.05H106.412ZM128.186 102.062V99.3605V96.6593H125.73H123.274V99.3605V102.062H125.73H128.186ZM141.855 97.9809V97.1504H144.147V97.9809C144.147 97.9809 143.829 97.9689 142.925 97.9689C141.918 97.9689 141.855 97.9809 141.855 97.9809ZM22.5102 101.992H26.3574V101.501H22.5102H18.663V101.992H22.5102ZM130.314 108.271C130.314 108.707 130.22 108.699 129.065 108.168C128.283 107.808 127.828 107.718 126.63 107.684C125.82 107.661 124.898 107.708 124.581 107.789C122.538 108.306 120.931 109.681 120.347 111.413C119.924 112.665 119.884 114.643 120.256 115.966C121.29 119.65 125.814 121.067 130.109 119.053L131.132 118.573V117.193C131.132 115.839 131.14 115.813 131.532 115.813C131.989 115.813 132.149 115.643 131.968 115.35C131.877 115.203 131.289 115.161 129.81 115.194C128.132 115.232 127.776 115.283 127.776 115.486C127.776 115.666 128.001 115.745 128.619 115.781C129.57 115.836 129.653 115.957 129.657 117.314C129.66 118.317 129.565 118.526 128.934 118.917C128.083 119.443 126.35 119.528 125.217 119.1C122.895 118.222 121.46 115.323 121.966 112.533C122.388 110.204 123.658 108.714 125.59 108.281C126.704 108.032 127.353 108.138 128.633 108.778C130.008 109.465 130.207 109.729 130.171 110.82C130.145 111.614 130.18 111.721 130.462 111.721C130.725 111.721 130.8 111.569 130.887 110.861C130.944 110.388 130.968 109.56 130.939 109.021C130.898 108.242 130.828 108.029 130.6 107.986C130.402 107.948 130.314 108.036 130.314 108.271ZM24.1292 111.803C23.656 110.73 22.8823 108.827 22.7145 108.324L22.5371 107.792H20.7638C19.2966 107.792 18.9904 107.834 18.9904 108.037C18.9904 108.196 19.1633 108.29 19.4816 108.303C20.1528 108.331 20.2581 108.35 20.3682 108.46C20.472 108.564 20.1783 117.692 20.0439 118.546C19.9734 118.993 19.8863 119.075 19.4351 119.119C19.0988 119.151 18.9086 119.258 18.9086 119.415C18.9086 119.615 19.2339 119.669 20.6685 119.707C22.3442 119.751 22.4284 119.738 22.4284 119.421C22.4284 119.136 22.3233 119.088 21.7094 119.088C21.074 119.088 20.9782 119.039 20.8849 118.667C20.741 118.094 20.9756 108.727 21.13 108.89C21.2434 109.009 22.7042 112.545 24.7508 117.655C25.2106 118.803 25.644 119.742 25.7139 119.742C25.9863 119.742 27.0272 117.812 27.7328 115.998C28.1401 114.951 28.8866 113.026 29.3918 111.721C29.897 110.415 30.3787 109.277 30.4622 109.191C30.5555 109.096 30.6139 110.971 30.6139 114.062V119.088H30.0409C29.5742 119.088 29.4679 119.149 29.4679 119.42C29.4679 119.739 29.5518 119.75 31.5553 119.706C33.2811 119.668 33.6426 119.618 33.6426 119.415C33.6426 119.251 33.4446 119.153 33.0432 119.12L32.4439 119.07L32.3378 117.564C32.2793 116.736 32.2543 114.328 32.2823 112.212L32.3329 108.365L32.8649 108.313C33.2012 108.281 33.397 108.173 33.397 108.021C33.397 107.822 33.121 107.788 31.8208 107.827L30.2446 107.873L29.7647 109.101C29.501 109.777 28.9658 111.176 28.5757 112.212C26.6158 117.413 26.4557 117.758 26.2595 117.191C26.1996 117.019 25.9834 116.472 25.7787 115.977C25.5741 115.482 25.1679 114.451 24.8762 113.685C24.5844 112.92 24.2482 112.073 24.1292 111.803ZM47.8235 108.283C48.2786 108.283 48.4584 108.213 48.4584 108.037C48.4584 107.83 48.0765 107.792 46.0027 107.792C43.9704 107.792 43.5471 107.832 43.5471 108.028C43.5471 108.194 43.7787 108.28 44.3247 108.315L45.1023 108.365L45.1455 113.726L45.1886 119.088H44.3679C43.6527 119.088 43.5471 119.13 43.5471 119.419C43.5471 119.74 43.6307 119.75 45.9597 119.706C48.0745 119.666 48.379 119.626 48.4256 119.383C48.4685 119.159 48.3281 119.097 47.6909 119.056L46.9031 119.006L46.8544 113.875C46.8187 110.134 46.8575 108.682 46.9971 108.514C47.1025 108.387 47.4745 108.283 47.8235 108.283ZM69.5096 116.959C69.4296 116.959 66.304 113.193 63.7653 110.037L61.9645 107.798L60.2865 107.795C58.9026 107.792 58.6085 107.835 58.6085 108.037C58.6085 108.263 58.8424 108.33 59.6316 108.326C59.8934 108.325 59.9181 108.567 59.9177 111.128C59.9173 112.67 59.8689 115.091 59.8101 116.509L59.7032 119.088H59.0739C58.5539 119.088 58.4447 119.144 58.4447 119.415C58.4447 119.724 58.5539 119.742 60.4093 119.742C62.2646 119.742 62.3738 119.724 62.3738 119.415C62.3738 119.127 62.2646 119.088 61.4734 119.088H60.573L60.5782 113.972L60.5833 108.856L60.9466 109.28C61.1463 109.514 62.1854 110.766 63.2557 112.063C64.3261 113.361 65.4773 114.753 65.814 115.159C67.504 117.192 69.0408 119.058 69.3551 119.459C69.5481 119.705 69.7768 119.906 69.8631 119.906C70.0774 119.906 70.2277 117.927 70.2535 114.766C70.2653 113.316 70.3205 111.283 70.3763 110.247L70.4775 108.365L71.0095 108.313C71.3391 108.282 71.5416 108.173 71.5416 108.027C71.5416 107.836 71.1864 107.792 69.6589 107.792C68.0945 107.792 67.7763 107.833 67.7763 108.037C67.7763 108.226 67.9855 108.283 68.6767 108.283H69.5771V112.621C69.5771 115.007 69.5466 116.959 69.5096 116.959ZM86.0382 108.283C86.4638 108.283 86.5707 108.226 86.4986 108.037C86.4208 107.835 85.9914 107.792 84.048 107.792C82.0626 107.792 81.6917 107.83 81.6917 108.037V108.043C81.6917 108.126 81.6917 108.183 81.7172 108.223C81.7709 108.307 81.9377 108.32 82.456 108.359L82.4734 108.36C82.7682 108.382 83.0629 108.453 83.1282 108.518C83.2865 108.676 83.3843 116.396 83.2469 117.892L83.1387 119.071L82.3744 119.12C81.8259 119.156 81.6098 119.239 81.6098 119.415C81.6098 119.619 81.9931 119.668 83.8939 119.706C86.3776 119.756 86.6462 119.718 86.5008 119.339C86.4342 119.166 86.1811 119.088 85.6851 119.088H84.9659V113.785C84.9659 113.444 84.9657 113.124 84.9654 112.824C84.9629 109.417 84.9623 108.555 85.3326 108.344C85.458 108.273 85.626 108.276 85.8509 108.28H85.8516C85.9098 108.281 85.9721 108.283 86.0382 108.283ZM105.719 114.773C105.515 114.516 104.168 112.858 102.725 111.09L100.102 107.873L98.3456 107.827C96.9174 107.789 96.5894 107.824 96.5894 108.013C96.5894 108.251 97.0628 108.44 97.6687 108.444C98.0102 108.446 98.0112 108.462 97.9468 113.399C97.9113 116.123 97.8478 118.517 97.8057 118.719C97.744 119.016 97.6183 119.088 97.1592 119.088C96.6986 119.088 96.5894 119.15 96.5894 119.415C96.5894 119.723 96.6985 119.742 98.472 119.742C100.246 119.742 100.355 119.723 100.355 119.415C100.355 119.128 100.246 119.088 99.4631 119.088H98.5717L98.5586 114.094C98.5483 110.144 98.5892 109.103 98.7544 109.111C98.8692 109.116 99.736 110.079 100.681 111.251C101.626 112.422 102.51 113.506 102.645 113.659C102.781 113.813 103.513 114.71 104.272 115.653C106.84 118.847 107.934 120.087 108.067 119.954C108.139 119.881 108.257 117.284 108.329 114.181L108.458 108.54L109.072 108.395C109.421 108.313 109.686 108.151 109.686 108.021C109.686 107.837 109.297 107.792 107.722 107.792C106.115 107.792 105.757 107.835 105.757 108.029C105.757 108.203 106.008 108.279 106.698 108.315L107.64 108.365L107.684 112.662C107.707 115.026 107.671 116.956 107.602 116.951C107.491 116.944 106.892 116.251 105.719 114.773ZM94.0166 72.3459C93.2979 70.054 92.5082 68.684 90.0409 67.8581C90.0409 67.8581 88.9956 67.6924 88.322 67.6163C85.7648 67.327 81.7326 67.5546 81.7326 67.5546L75.1432 67.4929V75.8267V84.2172H75.6344H76.1255C76.1255 84.2172 76.1211 85.4447 76.1255 85.5269H75.1432H73.9973V85.8543V86.1818C73.9973 86.1818 74.2967 86.1816 74.5293 86.1816L74.9795 86.1818V87.0003V87.8189H75.5127H76.2892V89.0467V92.5094V94.6947H77.5989H78.9086V95.4314V96.1681H77.5989H76.2892V98.8381V101.508H77.1896H78.2537V101.992C78.2537 101.992 78.3683 102.062 82.6739 102.062C86.9096 102.062 87.0941 102.074 87.0941 102.074V101.501C87.0941 101.501 88.641 101.475 91.2688 101.501L95.2798 101.489V100.719V99.8636H94.2156H93.1514L93.1297 98.9512H94.2048H95.2797V97.0685V95.1978H94.6248V92.1572V89.1286C94.6248 89.1286 95.096 89.1523 95.2797 89.1286L96.6712 89.1405L97.7353 89.1286V88.4857H96.7531C96.7531 87.4216 95.8361 86.1855 95.2757 85.5679C94.9894 85.2522 94.6348 85.0358 94.4041 85.0358C94.19 85.0358 93.7287 84.8051 93.3787 84.5232C93.0285 84.2415 92.4727 83.8879 92.1431 83.7377L91.5443 83.4645L92.4499 82.5721C92.9998 82.0304 93.5568 81.2616 93.8675 80.6156C93.8675 80.6156 94.2326 79.9886 94.3793 79.5515C94.7555 78.4301 94.6248 76.3711 94.6248 76.3711C94.624 74.1235 94.4164 73.5207 94.1612 72.7797L94.1609 72.7788L94.1604 72.7773C94.1137 72.6417 94.0654 72.5016 94.0166 72.3459ZM88.1582 88.4737L91.3915 88.5112L94.6248 88.5675V89.1286L91.8827 89.1065C90.4825 89.0952 89.6064 89.1161 89.0585 89.1294C88.3616 89.1461 88.1957 89.15 88.1582 89.0587V88.4737ZM88.1582 88.4737V87.5799V86.686L85.0746 86.6385C83.3787 86.6125 81.9605 86.6218 81.9232 86.6593C81.886 86.6968 81.8554 88.9621 81.8554 91.6934V96.6593H83.8199C85.6752 96.6593 85.7844 96.5894 85.7844 96.5894V95.975C85.7844 95.975 86.595 95.9856 87.0532 95.975H88.1582V95.5134V92.3142C88.1582 90.175 88.0764 89.0587 88.0764 89.0587H86.5211H84.9659V88.4857C84.9659 88.4857 85.1443 88.4737 86.5621 88.4737H88.1582ZM76.1255 85.5269C76.1255 85.5269 77.5947 85.4919 77.8035 85.4919C78.653 85.5168 79.3997 85.5269 79.3997 85.5269V85.8602V86.1818H77.8445H76.2892V85.8543V85.5269H76.1255ZM81.9372 81.9636L81.9834 77.688L82.0297 73.4123L83.7842 73.4249C86.7569 73.4462 87.311 73.7969 87.6157 75.8495C87.8204 77.2286 87.5952 79.8049 87.2038 80.5619C87.071 80.8184 86.6434 81.2077 86.2536 81.4268C85.6527 81.7645 85.2697 81.8357 83.741 81.8945L81.9372 81.9636ZM75.307 86.5092H75.7981H76.2074V86.8366H75.307V86.5092ZM76.1255 87.4915H75.7162H75.307V87.164H75.7162H76.1255V87.4915ZM18.5023 68.2145C18.6008 68.5971 18.8534 69.4628 19.0635 70.1381C19.2735 70.8134 20.4619 74.7733 21.7044 78.9376L23.9635 86.5092H24.5057H25.0477V88.883V91.2568V94.618V97.8052H23.8091H22.5703L22.5921 98.7176C22.5921 98.7176 22.7014 98.7068 23.8608 98.7538L25.0477 98.8019V99.9407V101.079H21.8554H18.663V97.6659V94.2524L16.412 94.153C15.174 94.0983 13.498 94.0867 12.6876 94.127C11.8772 94.1673 10.6412 94.153 10.6412 94.153V95.677V97.1504H9.08595H7.5307V99.6061V102.062L4.54297 102.056C2.3139 102.053 2.13895 102.069 2.12824 102.073V99.3834V97.1504H3.35607H4.5839V92.3209V87.4915H5.56617C6.10641 87.4915 6.54843 87.4576 6.54843 87.4161C6.54843 87.3428 8.64638 80.2977 9.4024 77.8325C9.6095 77.1572 10.3907 74.5604 11.1386 72.0617L12.4982 67.5187H15.4106H18.323L18.5023 68.2145ZM2.12824 102.073V102.074C2.12824 102.074 2.12777 102.074 2.12765 102.073C2.12757 102.073 2.12767 102.073 2.12824 102.073ZM15.1784 77.5051C15.1784 77.5051 14.9278 78.561 14.7353 79.5515C14.4049 81.2511 13.257 86.3658 12.6408 88.883C12.567 89.1846 12.4808 89.502 12.411 89.759C12.3349 90.0393 12.2783 90.248 12.2783 90.2865C12.2783 90.2865 13.2442 90.2976 14.3247 90.2973L16.2892 90.2968L16.3227 90.2958V88.8553H16.6875V89.5225L16.8142 89.3303L17.1405 88.8553H17.5906L17.0798 89.5234L17.5338 90.2745H17.9263L17.6808 88.31C17.5303 87.0123 17.4352 86.3574 17.4352 86.3574H16.9441L16.3871 82.3755L15.2251 77.3533L15.1784 77.5051ZM17.1055 90.2745L16.8367 89.8057L16.6875 89.9689V90.286L17.1055 90.2745ZM53.0361 93.3151V93.0935H52.4523V92.7647H52.9482V92.5501H52.4523V92.2574H53.0369V92.0349H52.4523H52.3545H52.1656V93.3151H52.3545H52.4523H53.0361ZM52.3704 93.672L52.6211 94.2417L52.8733 93.672H53.1829L52.7669 94.4898V94.9522H52.476V94.4898L52.0592 93.672H52.3704ZM52.2128 95.3091H52.08H51.9752H51.8382V96.5894H52.1249V96.2578L52.0962 95.6544L52.4238 96.5894H52.6163L52.9437 95.6544L52.9152 96.2578V96.5894H53.2027V95.3091H53.0647H52.9601H52.8273L52.5204 96.2244L52.2128 95.3091ZM11.1323 94.964V95.0981V95.2312V95.362L12.6454 95.8723V95.4638L11.5422 95.1636L12.6454 94.8633V94.457L11.1323 94.964ZM5.57537 86.1361L5.30934 85.6207H4.92275L5.35401 86.371L4.91132 87.1338H5.30205L5.57537 86.6091L5.8497 87.1338H6.23939L5.79775 86.371L6.22797 85.6207H5.8414L5.57537 86.1361ZM26.6181 88.018V88.2797H25.6931H25.5341H25.4521V88.0947L26.1913 87.0296H25.45V86.7667H26.3738H26.4943H26.6066V86.9474L25.8727 88.018H26.6181ZM26.0849 88.7312H25.504V90.2443H25.8427V89.6976H26.0654L26.3416 90.2443H26.7043V90.2287L26.3818 89.614C26.4237 89.5945 26.4616 89.5714 26.4954 89.5449C26.5446 89.5067 26.5827 89.4586 26.6097 89.4005C26.6367 89.3422 26.6503 89.2717 26.6503 89.1885C26.6503 89.0888 26.6274 89.005 26.5817 88.937C26.5359 88.8691 26.4704 88.8178 26.3853 88.7831C26.3008 88.7486 26.2006 88.7312 26.0849 88.7312ZM25.8427 89.4347H26.086C26.1366 89.4347 26.1785 89.4257 26.2117 89.4077C26.245 89.3897 26.2698 89.3645 26.2865 89.3319C26.3039 89.2987 26.3126 89.2599 26.3126 89.2155C26.3126 89.1698 26.3039 89.1302 26.2865 89.097C26.2692 89.0637 26.2437 89.0385 26.2096 89.0212C26.1764 89.0032 26.1348 88.9942 26.0849 88.9942H25.8427V89.4347ZM26.2273 91.1411V92.3725H25.8625V91.1411H25.4177V90.8595H25.8625H26.2273H26.6824V91.1411H26.2273ZM26.0164 94.5007H25.8823L25.3752 92.9877H25.7815L26.0817 94.091L26.3822 92.9877H26.7906L26.2803 94.5007H26.1494H26.0164ZM26.7751 95.6786V95.74C26.7751 95.8556 26.7589 95.9596 26.7263 96.0517C26.6944 96.1431 26.649 96.2215 26.5901 96.2865C26.5313 96.351 26.4616 96.4004 26.3813 96.4351C26.301 96.469 26.2122 96.4861 26.1153 96.4861C26.0176 96.4861 25.9282 96.469 25.8471 96.4351C25.7668 96.4004 25.6969 96.351 25.6373 96.2865C25.5783 96.2215 25.5327 96.1431 25.5001 96.0517C25.4682 95.9596 25.4523 95.8556 25.4523 95.74V95.6786C25.4523 95.5629 25.4682 95.4591 25.5001 95.3669C25.5327 95.2748 25.578 95.1965 25.6361 95.132C25.6951 95.0668 25.7646 95.0174 25.845 94.9834C25.9261 94.9488 26.0154 94.9315 26.1132 94.9315C26.2101 94.9315 26.2988 94.9488 26.3792 94.9834C26.4602 95.0174 26.5301 95.0668 26.5891 95.132C26.648 95.1965 26.6937 95.2748 26.7263 95.3669C26.7589 95.4591 26.7751 95.5629 26.7751 95.6786ZM26.4052 95.74V95.6765C26.4052 95.6017 26.3985 95.5359 26.3854 95.4791C26.373 95.4216 26.3542 95.3735 26.3293 95.3347C26.3044 95.2959 26.2735 95.2667 26.2368 95.2474C26.2008 95.2273 26.1595 95.2173 26.1132 95.2173C26.0647 95.2173 26.0223 95.2273 25.9863 95.2474C25.9503 95.2667 25.9202 95.2959 25.8959 95.3347C25.8717 95.3735 25.8534 95.4216 25.8409 95.4791C25.8291 95.5359 25.8232 95.6017 25.8232 95.6765V95.74C25.8232 95.814 25.8291 95.8798 25.8409 95.9375C25.8534 95.9943 25.8717 96.0424 25.8959 96.0819C25.9208 96.1213 25.9514 96.1511 25.9874 96.1712C26.0241 96.1914 26.0667 96.2014 26.1153 96.2014C26.1616 96.2014 26.2029 96.1914 26.2389 96.1712C26.2749 96.1511 26.305 96.1213 26.3293 96.0819C26.3542 96.0424 26.373 95.9943 26.3854 95.9375C26.3985 95.8798 26.4052 95.814 26.4052 95.74ZM95.4796 89.2224V90.2657C95.4796 90.3142 95.4724 90.3557 95.4578 90.3904C95.4432 90.4243 95.4228 90.4504 95.3964 90.4684C95.3702 90.4857 95.3389 90.4944 95.3029 90.4944C95.2656 90.4944 95.2337 90.488 95.2073 90.4756C95.1809 90.4631 95.161 90.4417 95.1471 90.4112C95.134 90.38 95.1273 90.3377 95.1273 90.2844H94.7885C94.7885 90.3924 94.8103 90.4815 94.854 90.5515C94.8984 90.6208 94.9593 90.6724 95.0369 90.7063C95.1145 90.7396 95.2032 90.7562 95.3029 90.7562C95.4 90.7562 95.4869 90.7365 95.5637 90.6969C95.6413 90.6568 95.7027 90.6003 95.7477 90.5276C95.7934 90.4541 95.8163 90.3669 95.8163 90.2657V89.2224H95.4796ZM95.3507 92.8636H95.2104H95.0182H94.8717V91.3506H95.012H95.2104H95.3486C95.4512 91.3506 95.5447 91.368 95.6292 91.4025C95.7145 91.4372 95.7878 91.4868 95.8495 91.5512C95.9119 91.6157 95.96 91.6918 95.9939 91.7799C96.028 91.8678 96.0449 91.9658 96.0449 92.0739V92.1415C96.0449 92.2489 96.028 92.3468 95.9939 92.4355C95.96 92.5234 95.9119 92.5997 95.8495 92.6641C95.7878 92.7279 95.7148 92.777 95.6303 92.8117C95.5457 92.8463 95.4526 92.8636 95.3507 92.8636ZM95.3507 92.6019H95.2104V91.6135H95.3486C95.4054 91.6135 95.4557 91.6232 95.4994 91.6427C95.5437 91.662 95.5807 91.6911 95.6105 91.7299C95.6403 91.7687 95.6629 91.8169 95.6781 91.8743C95.6934 91.9311 95.7009 91.9969 95.7009 92.0718V92.1415C95.7009 92.2405 95.6875 92.3247 95.6605 92.3939C95.6334 92.4625 95.5938 92.5144 95.5419 92.5498C95.49 92.5845 95.4262 92.6019 95.3507 92.6019ZM95.2104 93.9531V93.5781H95.8725V93.3151H95.2104H95.116H94.8717V94.8282H95.2104V94.2151H95.8058V93.9531H95.2104ZM88.0053 95.5089V95.7708H87.0805H86.9216H86.8394V95.5858L87.5787 94.5207H86.8374V94.2578H87.7613H87.8817H87.994V94.4385L87.2601 95.5089H88.0053ZM83.6562 95.7927V95.9091L82.1432 96.4247V96.0485L83.2695 95.7273L82.1432 95.4052V95.0279L83.6562 95.5465V95.6598V95.7927ZM58.7314 98.1392V97.8077H58.9565C58.9987 97.8077 59.0325 97.8147 59.0577 97.8288C59.0834 97.8429 59.1022 97.8627 59.1138 97.8886C59.1263 97.9144 59.1323 97.9449 59.1323 97.9801C59.1323 98.0099 59.1259 98.0369 59.113 98.061C59.1001 98.085 59.0799 98.104 59.0523 98.1181C59.0248 98.1322 58.9891 98.1392 58.945 98.1392H58.7314ZM59.2432 97.688C59.2325 97.6939 59.2211 97.6993 59.2089 97.7041C59.2346 97.7106 59.2574 97.7196 59.2774 97.7312C59.3267 97.7587 59.3622 97.7951 59.3838 97.8403C59.4056 97.8853 59.4164 97.9331 59.4164 97.9835C59.4164 98.0668 59.3985 98.1366 59.3627 98.1927C59.327 98.2486 59.2739 98.2905 59.2035 98.3185C59.1338 98.3466 59.0477 98.3607 58.945 98.3607H58.7314H58.5546H58.4447V97.0805H58.8984C58.9753 97.0805 59.0439 97.0875 59.1042 97.1016C59.1646 97.1157 59.2158 97.1373 59.2581 97.1666C59.301 97.1959 59.3334 97.2326 59.3556 97.2766C59.3781 97.3205 59.3892 97.3724 59.3892 97.4321C59.3892 97.4844 59.3774 97.533 59.354 97.5782C59.3311 97.6234 59.2941 97.66 59.2432 97.688ZM58.7314 97.616H58.8976C58.9457 97.616 58.9847 97.6101 59.0145 97.5985C59.0451 97.5867 59.0673 97.5697 59.0814 97.5474C59.0955 97.5245 59.1025 97.4965 59.1025 97.4629C59.1025 97.4249 59.0955 97.3942 59.0814 97.3706C59.0673 97.3472 59.0451 97.3301 59.0145 97.3197C58.9847 97.3085 58.946 97.303 58.8984 97.303H58.7314V97.616ZM59.5008 99.9978V98.7176H59.2158V99.545L58.7314 98.7176H58.4447V99.9978H58.7314V99.1704L59.215 99.9978H59.5008Z" fill="#080F4D"/>
</svg>
